<svg xmlns="http://www.w3.org/2000/svg" viewBox="0 0 44 55" enable-background="new 0 0 44 44"><path d="M28.1 41.4H16c-3.3 0-5.9-2.6-5.9-5.9v-15c-2.1 1-4.8.6-6.5-1L2.2 18C1.1 17 .4 15.5.4 13.9S.9 10.8 2 9.7c.6-.6 5.6-5.1 7.3-6 1.6-.9 3.5-1 5.2-1.1.5 0 1-.1 1.4-.1h.1c.3 0 .6.1.8.3.2.2.4.5.4.8.1 2.6 2.2 4.7 4.8 4.7 2.6 0 4.7-2.1 4.8-4.7 0-.3.1-.6.4-.8.2-.2.5-.3.8-.3h.2c.5.1 1 .1 1.5.1 1.7.1 3.6.2 5.2 1.1 1.7.9 6.7 5.4 7.2 5.9 2.3 2.4 2.2 6.2-.2 8.4l-1.3 1.4C39.5 20.5 38 21 36.5 21c-.9 0-1.7-.2-2.5-.5v15c0 3.3-2.7 5.9-5.9 5.9zm-17-26.2c.6 0 1.1.5 1.1 1.1v19.3c0 2.1 1.7 3.7 3.7 3.7H28c2.1 0 3.7-1.7 3.7-3.7V16.2c0-.6.5-1.1 1.1-1.1.6 0 1.1.5 1.1 1.1V18c1.4 1.2 3.6 1.2 5-.1l1.3-1.4c1.6-1.5 1.6-3.8.2-5.3-2.1-1.9-5.6-4.9-6.7-5.5-1.1-.6-2.7-.7-4.2-.8h-.6c-.6 3.3-3.4 5.7-6.8 5.7s-6.2-2.5-6.8-5.7h-.6c-1.7.1-3.3.2-4.5.8-1.1.6-4.7 3.7-6.8 5.6-.6.7-1 1.6-.9 2.6 0 1 .5 1.9 1.2 2.6L5.1 18c.6.6 1.5 1 2.5 1 .9 0 1.8-.3 2.5-.9v-1.8c0-.7.4-1.1 1-1.1z"/><text y="59" font-size="5" font-weight="bold" font-family="'Helvetica Neue', Helvetica, Arial-Unicode, Arial, Sans-serif">Created by Tim Neumann</text><text y="64" font-size="5" font-weight="bold" font-family="'Helvetica Neue', Helvetica, Arial-Unicode, Arial, Sans-serif">from the Noun Project</text></svg>